HIERARCHY
ROOT Hips
{
	OFFSET 0.000000 0.000000 0.000000
	CHANNELS 6 Xposition Yposition Zposition Zrotation Yrotation Xrotation 
	JOINT LowerBack
	{
		OFFSET 0.000000 0.000000 0.000000
		CHANNELS 3 Zrotation Yrotation Xrotation
		JOINT Spine
		{
			OFFSET 0.028270 2.035590 -0.193380
			CHANNELS 3 Zrotation Yrotation Xrotation
			JOINT Spine1
			{
				OFFSET 0.056720 2.048850 -0.042750
				CHANNELS 3 Zrotation Yrotation Xrotation
				JOINT Neck
				{
					OFFSET 0.000000 0.000000 0.000000
					CHANNELS 3 Zrotation Yrotation Xrotation
					JOINT Neck1
					{
						OFFSET -0.054170 1.746240 0.172020
						CHANNELS 3 Zrotation Yrotation Xrotation
						JOINT Head
						{
							OFFSET 0.104070 1.761360 -0.123970
							CHANNELS 3 Zrotation Yrotation Xrotation
							End Site
							{
								OFFSET 0.000000 0.000000 0.000000
							}
						}
					}
				}
				JOINT LeftShoulder
				{
					OFFSET 0.000000 0.000000 0.000000
					CHANNELS 3 Zrotation Yrotation Xrotation
					JOINT LeftArm
					{
						OFFSET 3.362410 1.200890 -0.311210
						CHANNELS 3 Zrotation Yrotation Xrotation
						JOINT LeftForeArm
						{
							OFFSET 4.983000 -0.000000 -0.000000
							CHANNELS 3 Zrotation Yrotation Xrotation
							JOINT LeftHand
							{
								OFFSET 3.483560 -0.000000 -0.000000
								CHANNELS 3 Zrotation Yrotation Xrotation
								JOINT LeftFingerBase
								{
									OFFSET 0.000000 0.000000 0.000000
									CHANNELS 3 Zrotation Yrotation Xrotation
									JOINT LeftHandIndex1
									{
										OFFSET 0.715260 -0.000000 -0.000000
										CHANNELS 3 Zrotation Yrotation Xrotation
										End Site
										{
											OFFSET 0.000000 0.000000 0.000000
										}
									}
								}
								JOINT LThumb
								{
									OFFSET 0.000000 0.000000 0.000000
									CHANNELS 3 Zrotation Yrotation Xrotation
									End Site
									{
										OFFSET 0.000000 0.000000 0.000000
									}
								}
							}
						}
					}
				}
				JOINT RightShoulder
				{
					OFFSET 0.000000 0.000000 0.000000
					CHANNELS 3 Zrotation Yrotation Xrotation
					JOINT RightArm
					{
						OFFSET -3.136600 1.374050 -0.404650
						CHANNELS 3 Zrotation Yrotation Xrotation
						JOINT RightForeArm
						{
							OFFSET -5.241900 -0.000000 -0.000000
							CHANNELS 3 Zrotation Yrotation Xrotation
							JOINT RightHand
							{
								OFFSET -3.444170 -0.000000 -0.000000
								CHANNELS 3 Zrotation Yrotation Xrotation
								JOINT RightFingerBase
								{
									OFFSET 0.000000 0.000000 0.000000
									CHANNELS 3 Zrotation Yrotation Xrotation
									JOINT RightHandIndex1
									{
										OFFSET -0.622530 -0.000000 -0.000000
										CHANNELS 3 Zrotation Yrotation Xrotation
										End Site
										{
											OFFSET 0.000000 0.000000 0.000000
										}
									}
								}
								JOINT RThumb
								{
									OFFSET 0.000000 0.000000 0.000000
									CHANNELS 3 Zrotation Yrotation Xrotation
									End Site
									{
										OFFSET 0.000000 0.000000 0.000000
									}
								}
							}
						}
					}
				}
			}
		}
	}
}
}
MOTION
Frames: 12
Frame Time: 0.008333
-3.834829 17.624888 -0.402187 -171.406547 81.115339 -153.449071 -0.834668 -0.060965 -1.919974 -1.122758 -0.086394 -3.644733 -7.682317 0.042214 -1.723756 10.371303 -10.677501 -7.541332 -2.995157 -0.236415 0.045777 0.000000 0.000000 0.000000 6.167942 12.882683 -1.154926 -70.817098 26.447132 30.054229 179.574040 -66.482128 179.935811 8.339240 -9.165023 -0.717436 -0.086750 0.595325 -0.000000 0.000000 0.000000 0.000000 0.000000 0.000000 0.000000 7.885941 -3.044708 -1.284406 80.999426 9.594009 36.366482 178.950901 73.271340 -179.995228 -0.691216 12.367438 -0.081125 0.038563 -0.823527 -0.000000 0.000000 0.000000 0.000000 0.000000 0.000000 0.000000 
-3.601395 17.668246 -0.460706 -170.531348 80.640752 -152.926990 -0.749683 -0.074115 -1.800175 -1.114088 -0.102068 -3.628188 -7.720872 0.028857 -1.741055 10.397830 -10.721878 -7.494957 -2.973125 -0.235375 0.060680 0.000000 0.000000 0.000000 6.376018 12.827374 -1.182574 -71.033549 26.889342 29.862244 179.552106 -66.469961 179.935934 8.286835 -9.118830 -0.708832 -0.081389 0.590336 0.000000 0.000000 0.000000 0.000000 0.000000 0.000000 0.000000 7.768987 -3.097564 -1.325181 81.369871 9.468307 36.338974 178.946457 73.163326 -179.993083 -0.313617 12.164337 -0.035451 0.025298 -0.817987 -0.000000 0.000000 0.000000 0.000000 0.000000 0.000000 0.000000 
-3.370727 17.699835 -0.519783 -169.700019 80.146143 -152.475691 -0.642322 -0.106124 -1.636317 -1.096653 -0.136067 -3.605305 -7.748541 -0.003464 -1.768252 10.413181 -10.743316 -7.447588 -2.951437 -0.234266 0.075331 0.000000 0.000000 0.000000 6.554138 12.741176 -1.198229 -71.287767 27.281142 29.647121 179.530883 -66.486357 179.935754 8.266179 -9.112811 -0.706108 -0.077131 0.587198 0.000000 0.000000 0.000000 0.000000 0.000000 0.000000 0.000000 7.643006 -3.136798 -1.362503 81.708984 9.313022 36.297293 178.951032 73.100903 -179.991503 0.003271 11.991388 0.001928 0.013155 -0.812420 -0.000000 0.000000 0.000000 0.000000 0.000000 0.000000 0.000000 
-3.143061 17.719596 -0.578981 -169.011347 79.633430 -152.184154 -0.530929 -0.156300 -1.433870 -1.074459 -0.186561 -3.576806 -7.767120 -0.052846 -1.804732 10.420883 -10.744091 -7.397927 -2.931875 -0.233244 0.089979 0.000000 0.000000 0.000000 6.703091 12.619488 -1.202358 -71.573020 27.609372 29.412948 179.510769 -66.536921 179.935298 8.277546 -9.138078 -0.708566 -0.074010 0.585595 0.000000 0.000000 0.000000 0.000000 0.000000 0.000000 0.000000 7.520590 -3.165294 -1.395334 82.006371 9.129957 36.240828 178.964430 73.076063 -179.990634 0.236752 11.856402 0.028919 0.002922 -0.807304 -0.000000 0.000000 0.000000 0.000000 0.000000 0.000000 0.000000 
-2.918427 17.727441 -0.638134 -168.489526 79.106334 -152.065559 -0.423909 -0.222035 -1.202212 -1.049904 -0.250726 -3.543719 -7.777919 -0.116272 -1.848249 10.421911 -10.729037 -7.346536 -2.915176 -0.232371 0.104449 0.000000 0.000000 0.000000 6.823944 12.464043 -1.195988 -71.882293 27.861647 29.167785 179.492192 -66.626866 179.934623 8.318480 -9.181959 -0.715207 -0.071990 0.585100 0.000000 0.000000 0.000000 0.000000 0.000000 0.000000 0.000000 7.406783 -3.187602 -1.423608 82.255947 8.923228 36.170121 178.985784 73.079597 -179.990533 0.376728 11.762874 0.044927 -0.004999 -0.802937 -0.000000 0.000000 0.000000 0.000000 0.000000 0.000000 0.000000 
-2.696762 17.723170 -0.697211 -168.113978 78.571001 -152.090450 -0.322744 -0.299365 -0.950903 -1.024161 -0.324937 -3.507031 -7.781922 -0.189865 -1.895905 10.415293 -10.705221 -7.295475 -2.901430 -0.231645 0.118200 0.000000 0.000000 0.000000 6.917212 12.280776 -1.180903 -72.206510 28.028714 28.924062 179.475431 -66.756457 179.933797 8.383611 -9.230282 -0.724334 -0.070957 0.585275 0.000000 0.000000 0.000000 0.000000 0.000000 0.000000 0.000000 7.302004 -3.209616 -1.447411 82.456139 8.697864 36.088338 179.013580 73.104389 -179.991147 0.426712 11.707865 0.050751 -0.010587 -0.799350 -0.000000 0.000000 0.000000 0.000000 0.000000 0.000000 0.000000 
-2.477816 17.706625 -0.756221 -167.847244 78.036146 -152.214182 -0.225950 -0.383886 -0.689754 -0.997784 -0.405387 -3.467875 -7.780117 -0.269578 -1.944642 10.399609 -10.679762 -7.247872 -2.890304 -0.231020 0.130445 0.000000 0.000000 0.000000 6.983089 12.079572 -1.159158 -72.534063 28.104559 28.696682 179.460666 -66.919598 179.932905 8.464748 -9.269894 -0.734350 -0.070717 0.585773 0.000000 0.000000 0.000000 0.000000 0.000000 0.000000 0.000000 7.203529 -3.236187 -1.466998 82.609691 8.460166 35.999443 179.045594 73.141787 -179.992334 0.403618 11.684364 0.048391 -0.014214 -0.796454 -0.000000 0.000000 0.000000 0.000000 0.000000 0.000000 0.000000 
-2.261234 17.677615 -0.815240 -167.648667 77.512583 -152.389343 -0.131384 -0.471009 -0.429016 -0.971059 -0.488163 -3.427590 -7.773271 -0.351350 -1.991331 10.373180 -10.660424 -7.207979 -2.881210 -0.230416 0.140131 0.000000 0.000000 0.000000 7.019265 11.872898 -1.133180 -72.849522 28.086100 28.502691 179.448308 -67.109316 179.932020 8.552501 -9.290170 -0.743558 -0.071073 0.586315 0.000000 0.000000 0.000000 0.000000 0.000000 0.000000 0.000000 7.108494 -3.272320 -1.482203 82.720330 8.215753 35.907900 179.079484 73.188860 -179.993855 0.334290 11.682244 0.040939 -0.016510 -0.793973 -0.000000 0.000000 0.000000 0.000000 0.000000 0.000000 0.000000 
-2.046553 17.636111 -0.874251 -167.495141 77.013395 -152.584674 -0.040686 -0.556947 -0.180340 -0.944818 -0.569962 -3.387790 -7.762340 -0.431822 -2.032648 10.336337 -10.653824 -7.180707 -2.873713 -0.229761 0.146042 0.000000 0.000000 0.000000 7.022123 11.675965 -1.105224 -73.134746 27.970427 28.359938 179.439061 -67.318617 179.931221 8.637053 -9.285533 -0.750661 -0.071850 0.586773 0.000000 0.000000 0.000000 0.000000 0.000000 0.000000 0.000000 7.017290 -3.321645 -1.492591 82.792675 7.970068 35.818578 179.112797 73.245145 -179.995439 0.251228 11.689347 0.032092 -0.018244 -0.791567 -0.000000 0.000000 0.000000 0.000000 0.000000 0.000000 0.000000 
-1.833248 17.582250 -0.933088 -167.386623 76.553434 -152.790335 0.037920 -0.638775 0.043502 -0.920978 -0.647943 -3.350227 -7.748411 -0.508175 -2.064948 10.292141 -10.665886 -7.171544 -2.867759 -0.229002 0.146793 0.000000 0.000000 0.000000 6.989851 11.505101 -1.077265 -73.371007 27.752523 28.285330 179.433784 -67.542051 179.930566 8.712150 -9.254009 -0.754857 -0.073015 0.587117 -0.000000 0.000000 0.000000 0.000000 0.000000 0.000000 0.000000 6.935999 -3.387112 -1.497225 82.830046 7.728122 35.735943 179.143323 73.315235 -179.996794 0.187450 11.694703 0.025243 -0.020171 -0.788911 -0.000000 0.000000 0.000000 0.000000 0.000000 0.000000 0.000000 
-1.620847 17.516219 -0.991699 -167.301252 76.140630 -152.972597 0.104359 -0.714418 0.228663 -0.899664 -0.720648 -3.317644 -7.732209 -0.579202 -2.087632 10.241727 -10.696294 -7.183239 -2.863183 -0.228120 0.141865 0.000000 0.000000 0.000000 6.914610 11.368893 -1.050619 -73.541084 27.435256 28.288607 179.433373 -67.773727 179.930098 8.774139 -9.195681 -0.755848 -0.074616 0.587368 0.000000 0.000000 0.000000 0.000000 0.000000 0.000000 0.000000 6.866622 -3.465584 -1.495214 82.836090 7.486123 35.658611 179.169970 73.407623 -179.997695 0.172573 11.690328 0.023788 -0.023048 -0.785685 -0.000000 0.000000 0.000000 0.000000 0.000000 0.000000 0.000000 
-1.408936 17.438570 -1.049726 -167.249865 75.783316 -153.132184 0.149428 -0.783056 0.364901 -0.882671 -0.787095 -3.292046 -7.715030 -0.644159 -2.100304 10.190295 -10.744574 -7.217930 -2.860594 -0.227152 0.130798 0.000000 0.000000 0.000000 6.789420 11.273286 -1.026011 -73.628116 27.016881 28.374235 179.439083 -68.010490 179.929845 8.821396 -9.114346 -0.753727 -0.076788 0.587628 0.000000 0.000000 0.000000 0.000000 0.000000 0.000000 0.000000 6.819919 -3.554470 -1.484875 82.810587 7.240486 35.584701 179.192120 73.534347 -179.997976 0.224790 11.670267 0.029827 -0.027263 -0.781651 -0.000000 0.000000 0.000000 0.000000 0.000000 0.000000 0.000000 
